<svg width="234" height="65" viewBox="0 0 234 65" fill="none" xmlns="http://www.w3.org/2000/svg">
<path d="M111.084 63.4617C109.808 64.3803 107.869 65 105.723 65C100.749 65 97.1026 61.906 97.1026 56.6974C97.1026 51.8354 100.706 48.4424 105.748 48.4424C108.166 48.4424 110.106 49.2224 111.084 49.842V53.9934C109.968 52.3207 108.166 51.3804 105.882 51.3804C102.779 51.3804 100.637 53.534 100.637 56.6107C100.637 59.865 102.848 62.0663 106.041 62.0663C108.438 62.0663 110.101 61.0567 111.08 59.8173V63.4617H111.084Z" fill="white"/>
<path d="M121.713 62.0663C123.833 62.0663 124.928 61.3557 124.928 59.8434C124.928 58.331 123.902 57.6204 121.713 57.6204H118.131V62.0707H121.713V62.0663ZM122.307 54.9597C126.117 54.9597 128.216 56.6324 128.216 59.7047C128.216 62.777 125.91 64.7487 121.876 64.7487H114.692V48.698H128.423L124.82 51.3587H118.135V54.9597H122.307Z" fill="white"/>
<path d="M134.849 51.3544V55.276H142.215V57.9584H134.849V62.0663H143.495V64.7487H131.406V48.698H143.495L139.866 51.3544H134.849Z" fill="white"/>
<path d="M153.279 57.525C155.49 57.525 156.701 56.4244 156.701 54.4527C156.701 52.481 155.494 51.3587 153.279 51.3587H150.223V57.525H153.279ZM153.348 48.698C157.774 48.698 160.166 50.8994 160.166 54.431C160.166 57.9627 157.546 60.2117 153.007 60.2117H150.223V64.753H146.779V48.7024H153.348V48.698Z" fill="white"/>
<path d="M182.457 63.4617C181.181 64.3803 179.242 65 177.096 65C172.126 65 168.476 61.906 168.476 56.6974C168.476 51.8354 172.079 48.4424 177.121 48.4424C179.539 48.4424 181.479 49.2224 182.457 49.842V53.9934C181.341 52.3207 179.539 51.3804 177.255 51.3804C174.152 51.3804 172.01 53.534 172.01 56.6107C172.01 59.865 174.221 62.0663 177.415 62.0663C179.811 62.0663 181.474 61.0567 182.453 59.8173V63.4617H182.457Z" fill="white"/>
<path d="M189.551 60.0947L197.49 48.698H200.956V64.7487H197.602V53.17L189.62 64.7487H186.198V48.698H189.551V60.0947Z" fill="white"/>
<path d="M216.808 51.3804H211.696V64.7487H208.252V51.3804H203.283V48.698H216.808V51.3804Z" fill="white"/>
<path d="M222.6 60.0947L230.535 48.698H234V64.7487H230.651V53.17L222.669 64.7487H219.247V48.698H222.6V60.0947Z" fill="white"/>
<path d="M99.124 25.6015C87.4914 20.5445 57.2269 8.61051 33.5134 6.83385C23.1825 6.05818 15.2694 5.52952 9.46384 8.35484C3.85658 11.0848 5.82623 15.0152 10.7655 18.4471C15.5409 21.7621 34.3754 27.2914 42.4954 29.3974C54.0116 32.3874 59.9421 34.6624 53.6711 45.6257C51.4213 49.556 52.7445 53.4387 59.2655 51.8224C66.058 50.141 79.893 42.0464 85.47 38.4454C100.374 28.8298 118.536 18.4688 121.661 16.6055C130.768 11.1628 133.397 12.2332 134.263 13.3165C135.884 15.3488 132.996 20.8608 131.22 23.9158C122.51 38.8874 112.386 31.3691 99.124 25.6015ZM128.208 23.0795C129.716 20.9171 131.975 16.6835 130.936 15.1278C129.686 13.2602 124.182 16.8698 122.428 17.9445C106.231 27.8721 101.184 33.0678 85.8105 43.5197C80.1429 47.3721 66.5881 55.4364 60.5369 56.6974C50.3869 58.812 44.8228 51.7227 50.5076 43.9661C54.4469 38.5927 56.4166 35.0958 41.9523 31.6811C33.7634 29.7484 13.7738 25.6231 5.10647 20.0028C-1.78085 15.5395 -1.71189 7.77851 5.378 3.81786C12.7782 -0.324796 25.2642 -0.411462 33.7807 0.407535C64.1185 3.33686 96.3312 19.3441 101.434 22.3081C119.928 33.0591 120.51 34.0904 128.203 23.0751" fill="white"/>
</svg>
