<svg width="247" height="247" viewBox="0 0 247 247" fill="none" xmlns="http://www.w3.org/2000/svg">
<path d="M180.73 234.951H186.755V228.927H180.73V234.951Z" fill="white"/>
<path d="M156.633 234.951H162.657V228.927H156.633V234.951Z" fill="white"/>
<path d="M150.609 234.951H156.634V228.927H150.609V234.951Z" fill="white"/>
<path d="M144.586 234.951H150.61V228.927H144.586V234.951Z" fill="white"/>
<path d="M138.562 234.951H144.587V228.927H138.562V234.951Z" fill="white"/>
<path d="M132.535 234.951H138.56V228.927H132.535V234.951Z" fill="white"/>
<path d="M96.3906 234.951H102.415V228.927H96.3906V234.951Z" fill="white"/>
<path d="M72.293 234.951H78.3174V228.927H72.293V234.951Z" fill="white"/>
<path d="M180.73 228.927H186.755V222.902H180.73V228.927Z" fill="white"/>
<path d="M174.707 228.927H180.731V222.902H174.707V228.927Z" fill="white"/>
<path d="M162.66 228.927H168.685V222.902H162.66V228.927Z" fill="white"/>
<path d="M156.633 228.927H162.657V222.902H156.633V228.927Z" fill="white"/>
<path d="M144.586 228.927H150.61V222.902H144.586V228.927Z" fill="white"/>
<path d="M138.562 228.927H144.587V222.902H138.562V228.927Z" fill="white"/>
<path d="M132.535 228.927H138.56V222.902H132.535V228.927Z" fill="white"/>
<path d="M126.512 228.927H132.536V222.902H126.512V228.927Z" fill="white"/>
<path d="M114.465 228.927H120.489V222.902H114.465V228.927Z" fill="white"/>
<path d="M102.414 228.927H108.438V222.902H102.414V228.927Z" fill="white"/>
<path d="M96.3906 228.927H102.415V222.902H96.3906V228.927Z" fill="white"/>
<path d="M78.3164 228.927H84.3408V222.902H78.3164V228.927Z" fill="white"/>
<path d="M72.293 228.927H78.3174V222.902H72.293V228.927Z" fill="white"/>
<path d="M60.2422 228.927H66.2666V222.902H60.2422V228.927Z" fill="white"/>
<path d="M180.73 222.902H186.755V216.878H180.73V222.902Z" fill="white"/>
<path d="M168.684 222.902H174.708V216.878H168.684V222.902Z" fill="white"/>
<path d="M162.66 222.902H168.685V216.878H162.66V222.902Z" fill="white"/>
<path d="M156.633 222.902H162.657V216.878H156.633V222.902Z" fill="white"/>
<path d="M138.562 222.902H144.587V216.878H138.562V222.902Z" fill="white"/>
<path d="M114.465 222.902H120.489V216.878H114.465V222.902Z" fill="white"/>
<path d="M108.438 222.902H114.462V216.878H108.438V222.902Z" fill="white"/>
<path d="M102.414 222.902H108.438V216.878H102.414V222.902Z" fill="white"/>
<path d="M90.3672 222.902H96.3916V216.878H90.3672V222.902Z" fill="white"/>
<path d="M84.3398 222.902H90.3642V216.878H84.3398V222.902Z" fill="white"/>
<path d="M78.3164 222.902H84.3408V216.878H78.3164V222.902Z" fill="white"/>
<path d="M72.293 222.902H78.3174V216.878H72.293V222.902Z" fill="white"/>
<path d="M66.2695 222.902H72.2939V216.878H66.2695V222.902Z" fill="white"/>
<path d="M174.707 216.878H180.731V210.854H174.707V216.878Z" fill="white"/>
<path d="M168.684 216.878H174.708V210.854H168.684V216.878Z" fill="white"/>
<path d="M156.633 216.878H162.657V210.854H156.633V216.878Z" fill="white"/>
<path d="M144.586 216.878H150.61V210.854H144.586V216.878Z" fill="white"/>
<path d="M138.562 216.878H144.587V210.854H138.562V216.878Z" fill="white"/>
<path d="M126.512 216.878H132.536V210.854H126.512V216.878Z" fill="white"/>
<path d="M108.438 216.878H114.462V210.854H108.438V216.878Z" fill="white"/>
<path d="M102.414 216.878H108.438V210.854H102.414V216.878Z" fill="white"/>
<path d="M78.3164 216.878H84.3408V210.854H78.3164V216.878Z" fill="white"/>
<path d="M72.293 216.878H78.3174V210.854H72.293V216.878Z" fill="white"/>
<path d="M66.2695 216.878H72.2939V210.854H66.2695V216.878Z" fill="white"/>
<path d="M180.73 210.853H186.755V204.829H180.73V210.853Z" fill="white"/>
<path d="M174.707 210.853H180.731V204.829H174.707V210.853Z" fill="white"/>
<path d="M162.66 210.853H168.685V204.829H162.66V210.853Z" fill="white"/>
<path d="M156.633 210.853H162.657V204.829H156.633V210.853Z" fill="white"/>
<path d="M150.609 210.853H156.634V204.829H150.609V210.853Z" fill="white"/>
<path d="M138.562 210.853H144.587V204.829H138.562V210.853Z" fill="white"/>
<path d="M132.535 210.853H138.56V204.829H132.535V210.853Z" fill="white"/>
<path d="M126.512 210.853H132.536V204.829H126.512V210.853Z" fill="white"/>
<path d="M114.465 210.853H120.489V204.829H114.465V210.853Z" fill="white"/>
<path d="M102.414 210.853H108.438V204.829H102.414V210.853Z" fill="white"/>
<path d="M96.3906 210.853H102.415V204.829H96.3906V210.853Z" fill="white"/>
<path d="M90.3672 210.853H96.3916V204.829H90.3672V210.853Z" fill="white"/>
<path d="M72.293 210.853H78.3174V204.829H72.293V210.853Z" fill="white"/>
<path d="M60.2422 210.853H66.2666V204.829H60.2422V210.853Z" fill="white"/>
<path d="M174.707 204.829H180.731V198.805H174.707V204.829Z" fill="white"/>
<path d="M150.609 204.829H156.634V198.805H150.609V204.829Z" fill="white"/>
<path d="M138.562 204.829H144.587V198.805H138.562V204.829Z" fill="white"/>
<path d="M132.535 204.829H138.56V198.805H132.535V204.829Z" fill="white"/>
<path d="M96.3906 204.829H102.415V198.805H96.3906V204.829Z" fill="white"/>
<path d="M90.3672 204.829H96.3916V198.805H90.3672V204.829Z" fill="white"/>
<path d="M78.3164 204.829H84.3408V198.805H78.3164V204.829Z" fill="white"/>
<path d="M60.2422 204.829H66.2666V198.805H60.2422V204.829Z" fill="white"/>
<path d="M180.73 198.805H186.755V192.78H180.73V198.805Z" fill="white"/>
<path d="M168.684 198.805H174.708V192.78H168.684V198.805Z" fill="white"/>
<path d="M156.633 198.805H162.657V192.78H156.633V198.805Z" fill="white"/>
<path d="M144.586 198.805H150.61V192.78H144.586V198.805Z" fill="white"/>
<path d="M132.535 198.805H138.56V192.78H132.535V198.805Z" fill="white"/>
<path d="M120.488 198.805H126.513V192.78H120.488V198.805Z" fill="white"/>
<path d="M108.438 198.805H114.462V192.78H108.438V198.805Z" fill="white"/>
<path d="M96.3906 198.805H102.415V192.78H96.3906V198.805Z" fill="white"/>
<path d="M84.3398 198.805H90.3642V192.78H84.3398V198.805Z" fill="white"/>
<path d="M72.293 198.805H78.3174V192.78H72.293V198.805Z" fill="white"/>
<path d="M60.2422 198.805H66.2666V192.78H60.2422V198.805Z" fill="white"/>
<path d="M174.707 192.78H180.731V186.756H174.707V192.78Z" fill="white"/>
<path d="M156.633 192.78H162.657V186.756H156.633V192.78Z" fill="white"/>
<path d="M144.586 192.78H150.61V186.756H144.586V192.78Z" fill="white"/>
<path d="M138.562 192.78H144.587V186.756H138.562V192.78Z" fill="white"/>
<path d="M120.488 192.78H126.513V186.756H120.488V192.78Z" fill="white"/>
<path d="M96.3906 192.78H102.415V186.756H96.3906V192.78Z" fill="white"/>
<path d="M78.3164 192.78H84.3408V186.756H78.3164V192.78Z" fill="white"/>
<path d="M60.2422 192.78H66.2666V186.756H60.2422V192.78Z" fill="white"/>
<path d="M228.926 186.756H234.95V180.732H228.926V186.756Z" fill="white"/>
<path d="M210.855 186.756H216.88V180.732H210.855V186.756Z" fill="white"/>
<path d="M204.828 186.756H210.853V180.732H204.828V186.756Z" fill="white"/>
<path d="M198.805 186.756H204.829V180.732H198.805V186.756Z" fill="white"/>
<path d="M192.781 186.756H198.806V180.732H192.781V186.756Z" fill="white"/>
<path d="M186.758 186.756H192.782V180.732H186.758V186.756Z" fill="white"/>
<path d="M180.73 186.756H186.755V180.732H180.73V186.756Z" fill="white"/>
<path d="M156.633 186.756H162.657V180.732H156.633V186.756Z" fill="white"/>
<path d="M150.609 186.756H156.634V180.732H150.609V186.756Z" fill="white"/>
<path d="M144.586 186.756H150.61V180.732H144.586V186.756Z" fill="white"/>
<path d="M126.512 186.756H132.536V180.732H126.512V186.756Z" fill="white"/>
<path d="M114.465 186.756H120.489V180.732H114.465V186.756Z" fill="white"/>
<path d="M90.3672 186.756H96.3916V180.732H90.3672V186.756Z" fill="white"/>
<path d="M84.3398 186.756H90.3642V180.732H84.3398V186.756Z" fill="white"/>
<path d="M72.293 186.756H78.3174V180.732H72.293V186.756Z" fill="white"/>
<path d="M66.2695 186.756H72.2939V180.732H66.2695V186.756Z" fill="white"/>
<path d="M54.2188 186.756H60.2431V180.732H54.2188V186.756Z" fill="white"/>
<path d="M36.1445 186.756H42.1689V180.732H36.1445V186.756Z" fill="white"/>
<path d="M24.0977 186.756H30.122V180.732H24.0977V186.756Z" fill="white"/>
<path d="M18.0742 186.756H24.0986V180.732H18.0742V186.756Z" fill="white"/>
<path d="M12.0469 186.756H18.0713V180.732H12.0469V186.756Z" fill="white"/>
<path d="M216.879 180.732H222.903V174.708H216.879V180.732Z" fill="white"/>
<path d="M204.828 180.732H210.853V174.708H204.828V180.732Z" fill="white"/>
<path d="M198.805 180.732H204.829V174.708H198.805V180.732Z" fill="white"/>
<path d="M156.633 180.732H162.657V174.708H156.633V180.732Z" fill="white"/>
<path d="M132.535 180.732H138.56V174.708H132.535V180.732Z" fill="white"/>
<path d="M120.488 180.732H126.513V174.708H120.488V180.732Z" fill="white"/>
<path d="M114.465 180.732H120.489V174.708H114.465V180.732Z" fill="white"/>
<path d="M96.3906 180.732H102.415V174.708H96.3906V180.732Z" fill="white"/>
<path d="M90.3672 180.732H96.3916V174.708H90.3672V180.732Z" fill="white"/>
<path d="M78.3164 180.732H84.3408V174.708H78.3164V180.732Z" fill="white"/>
<path d="M66.2695 180.732H72.2939V174.708H66.2695V180.732Z" fill="white"/>
<path d="M60.2422 180.732H66.2666V174.708H60.2422V180.732Z" fill="white"/>
<path d="M42.1719 180.732H48.1963V174.708H42.1719V180.732Z" fill="white"/>
<path d="M36.1445 180.732H42.1689V174.708H36.1445V180.732Z" fill="white"/>
<path d="M24.0977 180.732H30.122V174.708H24.0977V180.732Z" fill="white"/>
<path d="M18.0742 180.732H24.0986V174.708H18.0742V180.732Z" fill="white"/>
<path d="M216.879 174.707H222.903V168.683H216.879V174.707Z" fill="white"/>
<path d="M210.855 174.707H216.88V168.683H210.855V174.707Z" fill="white"/>
<path d="M204.828 174.707H210.853V168.683H204.828V174.707Z" fill="white"/>
<path d="M192.781 174.707H198.806V168.683H192.781V174.707Z" fill="white"/>
<path d="M186.758 174.707H192.782V168.683H186.758V174.707Z" fill="white"/>
<path d="M180.73 174.707H186.755V168.683H180.73V174.707Z" fill="white"/>
<path d="M174.707 174.707H180.731V168.683H174.707V174.707Z" fill="white"/>
<path d="M162.66 174.707H168.685V168.683H162.66V174.707Z" fill="white"/>
<path d="M138.562 174.707H144.587V168.683H138.562V174.707Z" fill="white"/>
<path d="M132.535 174.707H138.56V168.683H132.535V174.707Z" fill="white"/>
<path d="M120.488 174.707H126.513V168.683H120.488V174.707Z" fill="white"/>
<path d="M90.3672 174.707H96.3916V168.683H90.3672V174.707Z" fill="white"/>
<path d="M78.3164 174.707H84.3408V168.683H78.3164V174.707Z" fill="white"/>
<path d="M66.2695 174.707H72.2939V168.683H66.2695V174.707Z" fill="white"/>
<path d="M60.2422 174.707H66.2666V168.683H60.2422V174.707Z" fill="white"/>
<path d="M54.2188 174.707H60.2431V168.683H54.2188V174.707Z" fill="white"/>
<path d="M48.1953 174.707H54.2197V168.683H48.1953V174.707Z" fill="white"/>
<path d="M42.1719 174.707H48.1963V168.683H42.1719V174.707Z" fill="white"/>
<path d="M24.0977 174.707H30.122V168.683H24.0977V174.707Z" fill="white"/>
<path d="M12.0469 174.707H18.0713V168.683H12.0469V174.707Z" fill="white"/>
<path d="M228.926 168.683H234.95V162.659H228.926V168.683Z" fill="white"/>
<path d="M210.855 168.683H216.88V162.659H210.855V168.683Z" fill="white"/>
<path d="M174.707 168.683H180.731V162.659H174.707V168.683Z" fill="white"/>
<path d="M168.684 168.683H174.708V162.659H168.684V168.683Z" fill="white"/>
<path d="M162.66 168.683H168.685V162.659H162.66V168.683Z" fill="white"/>
<path d="M156.633 168.683H162.657V162.659H156.633V168.683Z" fill="white"/>
<path d="M132.535 168.683H138.56V162.659H132.535V168.683Z" fill="white"/>
<path d="M126.512 168.683H132.536V162.659H126.512V168.683Z" fill="white"/>
<path d="M120.488 168.683H126.513V162.659H120.488V168.683Z" fill="white"/>
<path d="M108.438 168.683H114.462V162.659H108.438V168.683Z" fill="white"/>
<path d="M42.1719 168.683H48.1963V162.659H42.1719V168.683Z" fill="white"/>
<path d="M36.1445 168.683H42.1689V162.659H36.1445V168.683Z" fill="white"/>
<path d="M30.1211 168.683H36.1455V162.659H30.1211V168.683Z" fill="white"/>
<path d="M24.0977 168.683H30.122V162.659H24.0977V168.683Z" fill="white"/>
<path d="M18.0742 168.683H24.0986V162.659H18.0742V168.683Z" fill="white"/>
<path d="M12.0469 168.683H18.0713V162.659H12.0469V168.683Z" fill="white"/>
<path d="M228.926 162.659H234.95V156.634H228.926V162.659Z" fill="white"/>
<path d="M192.781 162.659H198.806V156.634H192.781V162.659Z" fill="white"/>
<path d="M186.758 162.659H192.782V156.634H186.758V162.659Z" fill="white"/>
<path d="M168.684 162.659H174.708V156.634H168.684V162.659Z" fill="white"/>
<path d="M162.66 162.659H168.685V156.634H162.66V162.659Z" fill="white"/>
<path d="M150.609 162.659H156.634V156.634H150.609V162.659Z" fill="white"/>
<path d="M144.586 162.659H150.61V156.634H144.586V162.659Z" fill="white"/>
<path d="M138.562 162.659H144.587V156.634H138.562V162.659Z" fill="white"/>
<path d="M132.535 162.659H138.56V156.634H132.535V162.659Z" fill="white"/>
<path d="M108.438 162.659H114.462V156.634H108.438V162.659Z" fill="white"/>
<path d="M84.3398 162.659H90.3642V156.634H84.3398V162.659Z" fill="white"/>
<path d="M48.1953 162.659H54.2197V156.634H48.1953V162.659Z" fill="white"/>
<path d="M30.1211 162.659H36.1455V156.634H30.1211V162.659Z" fill="white"/>
<path d="M12.0469 162.659H18.0713V156.634H12.0469V162.659Z" fill="white"/>
<path d="M228.926 156.634H234.95V150.61H228.926V156.634Z" fill="white"/>
<path d="M210.855 156.634H216.88V150.61H210.855V156.634Z" fill="white"/>
<path d="M204.828 156.634H210.853V150.61H204.828V156.634Z" fill="white"/>
<path d="M198.805 156.634H204.829V150.61H198.805V156.634Z" fill="white"/>
<path d="M186.758 156.634H192.782V150.61H186.758V156.634Z" fill="white"/>
<path d="M168.684 156.634H174.708V150.61H168.684V156.634Z" fill="white"/>
<path d="M150.609 156.634H156.634V150.61H150.609V156.634Z" fill="white"/>
<path d="M138.562 156.634H144.587V150.61H138.562V156.634Z" fill="white"/>
<path d="M132.535 156.634H138.56V150.61H132.535V156.634Z" fill="white"/>
<path d="M102.414 156.634H108.438V150.61H102.414V156.634Z" fill="white"/>
<path d="M90.3672 156.634H96.3916V150.61H90.3672V156.634Z" fill="white"/>
<path d="M78.3164 156.634H84.3408V150.61H78.3164V156.634Z" fill="white"/>
<path d="M66.2695 156.634H72.2939V150.61H66.2695V156.634Z" fill="white"/>
<path d="M60.2422 156.634H66.2666V150.61H60.2422V156.634Z" fill="white"/>
<path d="M36.1445 156.634H42.1689V150.61H36.1445V156.634Z" fill="white"/>
<path d="M30.1211 156.634H36.1455V150.61H30.1211V156.634Z" fill="white"/>
<path d="M216.879 150.61H222.903V144.585H216.879V150.61Z" fill="white"/>
<path d="M210.855 150.61H216.88V144.585H210.855V150.61Z" fill="white"/>
<path d="M192.781 150.61H198.806V144.585H192.781V150.61Z" fill="white"/>
<path d="M180.73 150.61H186.755V144.585H180.73V150.61Z" fill="white"/>
<path d="M174.707 150.61H180.731V144.585H174.707V150.61Z" fill="white"/>
<path d="M168.684 150.61H174.708V144.585H168.684V150.61Z" fill="white"/>
<path d="M162.66 150.61H168.685V144.585H162.66V150.61Z" fill="white"/>
<path d="M150.609 150.61H156.634V144.585H150.609V150.61Z" fill="white"/>
<path d="M138.562 150.61H144.587V144.585H138.562V150.61Z" fill="white"/>
<path d="M114.465 150.61H120.489V144.585H114.465V150.61Z" fill="white"/>
<path d="M108.438 150.61H114.462V144.585H108.438V150.61Z" fill="white"/>
<path d="M102.414 150.61H108.438V144.585H102.414V150.61Z" fill="white"/>
<path d="M84.3398 150.61H90.3642V144.585H84.3398V150.61Z" fill="white"/>
<path d="M78.3164 150.61H84.3408V144.585H78.3164V150.61Z" fill="white"/>
<path d="M66.2695 150.61H72.2939V144.585H66.2695V150.61Z" fill="white"/>
<path d="M54.2188 150.61H60.2431V144.585H54.2188V150.61Z" fill="white"/>
<path d="M36.1445 150.61H42.1689V144.585H36.1445V150.61Z" fill="white"/>
<path d="M30.1211 150.61H36.1455V144.585H30.1211V150.61Z" fill="white"/>
<path d="M24.0977 150.61H30.122V144.585H24.0977V150.61Z" fill="white"/>
<path d="M18.0742 150.61H24.0986V144.585H18.0742V150.61Z" fill="white"/>
<path d="M12.0469 150.61H18.0713V144.585H12.0469V150.61Z" fill="white"/>
<path d="M210.855 144.585H216.88V138.561H210.855V144.585Z" fill="white"/>
<path d="M198.805 144.585H204.829V138.561H198.805V144.585Z" fill="white"/>
<path d="M186.758 144.585H192.782V138.561H186.758V144.585Z" fill="white"/>
<path d="M168.684 144.585H174.708V138.561H168.684V144.585Z" fill="white"/>
<path d="M162.66 144.585H168.685V138.561H162.66V144.585Z" fill="white"/>
<path d="M156.633 144.585H162.657V138.561H156.633V144.585Z" fill="white"/>
<path d="M150.609 144.585H156.634V138.561H150.609V144.585Z" fill="white"/>
<path d="M144.586 144.585H150.61V138.561H144.586V144.585Z" fill="white"/>
<path d="M72.293 144.585H78.3174V138.561H72.293V144.585Z" fill="white"/>
<path d="M60.2422 144.585H66.2666V138.561H60.2422V144.585Z" fill="white"/>
<path d="M54.2188 144.585H60.2431V138.561H54.2188V144.585Z" fill="white"/>
<path d="M48.1953 144.585H54.2197V138.561H48.1953V144.585Z" fill="white"/>
<path d="M42.1719 144.585H48.1963V138.561H42.1719V144.585Z" fill="white"/>
<path d="M30.1211 144.585H36.1455V138.561H30.1211V144.585Z" fill="white"/>
<path d="M24.0977 144.585H30.122V138.561H24.0977V144.585Z" fill="white"/>
<path d="M18.0742 144.585H24.0986V138.561H18.0742V144.585Z" fill="white"/>
<path d="M12.0469 144.585H18.0713V138.561H12.0469V144.585Z" fill="white"/>
<path d="M216.879 138.561H222.903V132.537H216.879V138.561Z" fill="white"/>
<path d="M210.855 138.561H216.88V132.537H210.855V138.561Z" fill="white"/>
<path d="M204.828 138.561H210.853V132.537H204.828V138.561Z" fill="white"/>
<path d="M198.805 138.561H204.829V132.537H198.805V138.561Z" fill="white"/>
<path d="M192.781 138.561H198.806V132.537H192.781V138.561Z" fill="white"/>
<path d="M186.758 138.561H192.782V132.537H186.758V138.561Z" fill="white"/>
<path d="M168.684 138.561H174.708V132.537H168.684V138.561Z" fill="white"/>
<path d="M156.633 138.561H162.657V132.537H156.633V138.561Z" fill="white"/>
<path d="M114.465 138.561H120.489V132.537H114.465V138.561Z" fill="white"/>
<path d="M96.3906 138.561H102.415V132.537H96.3906V138.561Z" fill="white"/>
<path d="M90.3672 138.561H96.3916V132.537H90.3672V138.561Z" fill="white"/>
<path d="M78.3164 138.561H84.3408V132.537H78.3164V138.561Z" fill="white"/>
<path d="M48.1953 138.561H54.2197V132.537H48.1953V138.561Z" fill="white"/>
<path d="M42.1719 138.561H48.1963V132.537H42.1719V138.561Z" fill="white"/>
<path d="M36.1445 138.561H42.1689V132.537H36.1445V138.561Z" fill="white"/>
<path d="M24.0977 138.561H30.122V132.537H24.0977V138.561Z" fill="white"/>
<path d="M18.0742 138.561H24.0986V132.537H18.0742V138.561Z" fill="white"/>
<path d="M222.902 132.537H228.927V126.512H222.902V132.537Z" fill="white"/>
<path d="M210.855 132.537H216.88V126.512H210.855V132.537Z" fill="white"/>
<path d="M204.828 132.537H210.853V126.512H204.828V132.537Z" fill="white"/>
<path d="M186.758 132.537H192.782V126.512H186.758V132.537Z" fill="white"/>
<path d="M180.73 132.537H186.755V126.512H180.73V132.537Z" fill="white"/>
<path d="M168.684 132.537H174.708V126.512H168.684V132.537Z" fill="white"/>
<path d="M162.66 132.537H168.685V126.512H162.66V132.537Z" fill="white"/>
<path d="M150.609 132.537H156.634V126.512H150.609V132.537Z" fill="white"/>
<path d="M126.512 132.537H132.536V126.512H126.512V132.537Z" fill="white"/>
<path d="M120.488 132.537H126.513V126.512H120.488V132.537Z" fill="white"/>
<path d="M114.465 132.537H120.489V126.512H114.465V132.537Z" fill="white"/>
<path d="M102.414 132.537H108.438V126.512H102.414V132.537Z" fill="white"/>
<path d="M90.3672 132.537H96.3916V126.512H90.3672V132.537Z" fill="white"/>
<path d="M66.2695 132.537H72.2939V126.512H66.2695V132.537Z" fill="white"/>
<path d="M54.2188 132.537H60.2431V126.512H54.2188V132.537Z" fill="white"/>
<path d="M42.1719 132.537H48.1963V126.512H42.1719V132.537Z" fill="white"/>
<path d="M228.926 126.512H234.95V120.488H228.926V126.512Z" fill="white"/>
<path d="M222.902 126.512H228.927V120.488H222.902V126.512Z" fill="white"/>
<path d="M216.879 126.512H222.903V120.488H216.879V126.512Z" fill="white"/>
<path d="M210.855 126.512H216.88V120.488H210.855V126.512Z" fill="white"/>
<path d="M204.828 126.512H210.853V120.488H204.828V126.512Z" fill="white"/>
<path d="M192.781 126.512H198.806V120.488H192.781V126.512Z" fill="white"/>
<path d="M186.758 126.512H192.782V120.488H186.758V126.512Z" fill="white"/>
<path d="M180.73 126.512H186.755V120.488H180.73V126.512Z" fill="white"/>
<path d="M174.707 126.512H180.731V120.488H174.707V126.512Z" fill="white"/>
<path d="M156.633 126.512H162.657V120.488H156.633V126.512Z" fill="white"/>
<path d="M150.609 126.512H156.634V120.488H150.609V126.512Z" fill="white"/>
<path d="M132.535 126.512H138.56V120.488H132.535V126.512Z" fill="white"/>
<path d="M126.512 126.512H132.536V120.488H126.512V126.512Z" fill="white"/>
<path d="M114.465 126.512H120.489V120.488H114.465V126.512Z" fill="white"/>
<path d="M108.438 126.512H114.462V120.488H108.438V126.512Z" fill="white"/>
<path d="M90.3672 126.512H96.3916V120.488H90.3672V126.512Z" fill="white"/>
<path d="M72.293 126.512H78.3174V120.488H72.293V126.512Z" fill="white"/>
<path d="M66.2695 126.512H72.2939V120.488H66.2695V126.512Z" fill="white"/>
<path d="M54.2188 126.512H60.2431V120.488H54.2188V126.512Z" fill="white"/>
<path d="M48.1953 126.512H54.2197V120.488H48.1953V126.512Z" fill="white"/>
<path d="M36.1445 126.512H42.1689V120.488H36.1445V126.512Z" fill="white"/>
<path d="M12.0469 126.512H18.0713V120.488H12.0469V126.512Z" fill="white"/>
<path d="M228.926 120.488H234.95V114.463H228.926V120.488Z" fill="white"/>
<path d="M210.855 120.488H216.88V114.463H210.855V120.488Z" fill="white"/>
<path d="M198.805 120.488H204.829V114.463H198.805V120.488Z" fill="white"/>
<path d="M186.758 120.488H192.782V114.463H186.758V120.488Z" fill="white"/>
<path d="M180.73 120.488H186.755V114.463H180.73V120.488Z" fill="white"/>
<path d="M162.66 120.488H168.685V114.463H162.66V120.488Z" fill="white"/>
<path d="M156.633 120.488H162.657V114.463H156.633V120.488Z" fill="white"/>
<path d="M144.586 120.488H150.61V114.463H144.586V120.488Z" fill="white"/>
<path d="M138.562 120.488H144.587V114.463H138.562V120.488Z" fill="white"/>
<path d="M132.535 120.488H138.56V114.463H132.535V120.488Z" fill="white"/>
<path d="M96.3906 120.488H102.415V114.463H96.3906V120.488Z" fill="white"/>
<path d="M78.3164 120.488H84.3408V114.463H78.3164V120.488Z" fill="white"/>
<path d="M72.293 120.488H78.3174V114.463H72.293V120.488Z" fill="white"/>
<path d="M60.2422 120.488H66.2666V114.463H60.2422V120.488Z" fill="white"/>
<path d="M12.0469 120.488H18.0713V114.463H12.0469V120.488Z" fill="white"/>
<path d="M222.902 114.463H228.927V108.439H222.902V114.463Z" fill="white"/>
<path d="M210.855 114.463H216.88V108.439H210.855V114.463Z" fill="white"/>
<path d="M204.828 114.463H210.853V108.439H204.828V114.463Z" fill="white"/>
<path d="M192.781 114.463H198.806V108.439H192.781V114.463Z" fill="white"/>
<path d="M186.758 114.463H192.782V108.439H186.758V114.463Z" fill="white"/>
<path d="M180.73 114.463H186.755V108.439H180.73V114.463Z" fill="white"/>
<path d="M174.707 114.463H180.731V108.439H174.707V114.463Z" fill="white"/>
<path d="M168.684 114.463H174.708V108.439H168.684V114.463Z" fill="white"/>
<path d="M156.633 114.463H162.657V108.439H156.633V114.463Z" fill="white"/>
<path d="M144.586 114.463H150.61V108.439H144.586V114.463Z" fill="white"/>
<path d="M132.535 114.463H138.56V108.439H132.535V114.463Z" fill="white"/>
<path d="M126.512 114.463H132.536V108.439H126.512V114.463Z" fill="white"/>
<path d="M108.438 114.463H114.462V108.439H108.438V114.463Z" fill="white"/>
<path d="M90.3672 114.463H96.3916V108.439H90.3672V114.463Z" fill="white"/>
<path d="M72.293 114.463H78.3174V108.439H72.293V114.463Z" fill="white"/>
<path d="M66.2695 114.463H72.2939V108.439H66.2695V114.463Z" fill="white"/>
<path d="M60.2422 114.463H66.2666V108.439H60.2422V114.463Z" fill="white"/>
<path d="M54.2188 114.463H60.2431V108.439H54.2188V114.463Z" fill="white"/>
<path d="M48.1953 114.463H54.2197V108.439H48.1953V114.463Z" fill="white"/>
<path d="M42.1719 114.463H48.1963V108.439H42.1719V114.463Z" fill="white"/>
<path d="M36.1445 114.463H42.1689V108.439H36.1445V114.463Z" fill="white"/>
<path d="M30.1211 114.463H36.1455V108.439H30.1211V114.463Z" fill="white"/>
<path d="M228.926 108.439H234.95V102.415H228.926V108.439Z" fill="white"/>
<path d="M204.828 108.439H210.853V102.415H204.828V108.439Z" fill="white"/>
<path d="M180.73 108.439H186.755V102.415H180.73V108.439Z" fill="white"/>
<path d="M162.66 108.439H168.685V102.415H162.66V108.439Z" fill="white"/>
<path d="M156.633 108.439H162.657V102.415H156.633V108.439Z" fill="white"/>
<path d="M138.562 108.439H144.587V102.415H138.562V108.439Z" fill="white"/>
<path d="M126.512 108.439H132.536V102.415H126.512V108.439Z" fill="white"/>
<path d="M120.488 108.439H126.513V102.415H120.488V108.439Z" fill="white"/>
<path d="M114.465 108.439H120.489V102.415H114.465V108.439Z" fill="white"/>
<path d="M108.438 108.439H114.462V102.415H108.438V108.439Z" fill="white"/>
<path d="M90.3672 108.439H96.3916V102.415H90.3672V108.439Z" fill="white"/>
<path d="M78.3164 108.439H84.3408V102.415H78.3164V108.439Z" fill="white"/>
<path d="M66.2695 108.439H72.2939V102.415H66.2695V108.439Z" fill="white"/>
<path d="M36.1445 108.439H42.1689V102.415H36.1445V108.439Z" fill="white"/>
<path d="M24.0977 108.439H30.122V102.415H24.0977V108.439Z" fill="white"/>
<path d="M228.926 102.415H234.95V96.3901H228.926V102.415Z" fill="white"/>
<path d="M204.828 102.415H210.853V96.3901H204.828V102.415Z" fill="white"/>
<path d="M198.805 102.415H204.829V96.3901H198.805V102.415Z" fill="white"/>
<path d="M192.781 102.415H198.806V96.3901H192.781V102.415Z" fill="white"/>
<path d="M168.684 102.415H174.708V96.3901H168.684V102.415Z" fill="white"/>
<path d="M150.609 102.415H156.634V96.3901H150.609V102.415Z" fill="white"/>
<path d="M144.586 102.415H150.61V96.3901H144.586V102.415Z" fill="white"/>
<path d="M138.562 102.415H144.587V96.3901H138.562V102.415Z" fill="white"/>
<path d="M132.535 102.415H138.56V96.3901H132.535V102.415Z" fill="white"/>
<path d="M102.414 102.415H108.438V96.3901H102.414V102.415Z" fill="white"/>
<path d="M90.3672 102.415H96.3916V96.3901H90.3672V102.415Z" fill="white"/>
<path d="M66.2695 102.415H72.2939V96.3901H66.2695V102.415Z" fill="white"/>
<path d="M60.2422 102.415H66.2666V96.3901H60.2422V102.415Z" fill="white"/>
<path d="M48.1953 102.415H54.2197V96.3901H48.1953V102.415Z" fill="white"/>
<path d="M42.1719 102.415H48.1963V96.3901H42.1719V102.415Z" fill="white"/>
<path d="M30.1211 102.415H36.1455V96.3901H30.1211V102.415Z" fill="white"/>
<path d="M12.0469 102.415H18.0713V96.3901H12.0469V102.415Z" fill="white"/>
<path d="M216.879 96.3901H222.903V90.3657H216.879V96.3901Z" fill="white"/>
<path d="M204.828 96.3901H210.853V90.3657H204.828V96.3901Z" fill="white"/>
<path d="M198.805 96.3901H204.829V90.3657H198.805V96.3901Z" fill="white"/>
<path d="M186.758 96.3901H192.782V90.3657H186.758V96.3901Z" fill="white"/>
<path d="M174.707 96.3901H180.731V90.3657H174.707V96.3901Z" fill="white"/>
<path d="M168.684 96.3901H174.708V90.3657H168.684V96.3901Z" fill="white"/>
<path d="M150.609 96.3901H156.634V90.3657H150.609V96.3901Z" fill="white"/>
<path d="M138.562 96.3901H144.587V90.3657H138.562V96.3901Z" fill="white"/>
<path d="M126.512 96.3901H132.536V90.3657H126.512V96.3901Z" fill="white"/>
<path d="M120.488 96.3901H126.513V90.3657H120.488V96.3901Z" fill="white"/>
<path d="M108.438 96.3901H114.462V90.3657H108.438V96.3901Z" fill="white"/>
<path d="M96.3906 96.3901H102.415V90.3657H96.3906V96.3901Z" fill="white"/>
<path d="M90.3672 96.3901H96.3916V90.3657H90.3672V96.3901Z" fill="white"/>
<path d="M72.293 96.3901H78.3174V90.3657H72.293V96.3901Z" fill="white"/>
<path d="M66.2695 96.3901H72.2939V90.3657H66.2695V96.3901Z" fill="white"/>
<path d="M60.2422 96.3901H66.2666V90.3657H60.2422V96.3901Z" fill="white"/>
<path d="M48.1953 96.3901H54.2197V90.3657H48.1953V96.3901Z" fill="white"/>
<path d="M42.1719 96.3901H48.1963V90.3657H42.1719V96.3901Z" fill="white"/>
<path d="M36.1445 96.3901H42.1689V90.3657H36.1445V96.3901Z" fill="white"/>
<path d="M30.1211 96.3901H36.1455V90.3657H30.1211V96.3901Z" fill="white"/>
<path d="M24.0977 96.3901H30.122V90.3657H24.0977V96.3901Z" fill="white"/>
<path d="M18.0742 96.3901H24.0986V90.3657H18.0742V96.3901Z" fill="white"/>
<path d="M12.0469 96.3901H18.0713V90.3657H12.0469V96.3901Z" fill="white"/>
<path d="M228.926 90.3657H234.95V84.3413H228.926V90.3657Z" fill="white"/>
<path d="M210.855 90.3657H216.88V84.3413H210.855V90.3657Z" fill="white"/>
<path d="M204.828 90.3657H210.853V84.3413H204.828V90.3657Z" fill="white"/>
<path d="M198.805 90.3657H204.829V84.3413H198.805V90.3657Z" fill="white"/>
<path d="M192.781 90.3657H198.806V84.3413H192.781V90.3657Z" fill="white"/>
<path d="M186.758 90.3657H192.782V84.3413H186.758V90.3657Z" fill="white"/>
<path d="M168.684 90.3657H174.708V84.3413H168.684V90.3657Z" fill="white"/>
<path d="M162.66 90.3657H168.685V84.3413H162.66V90.3657Z" fill="white"/>
<path d="M150.609 90.3657H156.634V84.3413H150.609V90.3657Z" fill="white"/>
<path d="M144.586 90.3657H150.61V84.3413H144.586V90.3657Z" fill="white"/>
<path d="M114.465 90.3657H120.489V84.3413H114.465V90.3657Z" fill="white"/>
<path d="M108.438 90.3657H114.462V84.3413H108.438V90.3657Z" fill="white"/>
<path d="M90.3672 90.3657H96.3916V84.3413H90.3672V90.3657Z" fill="white"/>
<path d="M84.3398 90.3657H90.3642V84.3413H84.3398V90.3657Z" fill="white"/>
<path d="M72.293 90.3657H78.3174V84.3413H72.293V90.3657Z" fill="white"/>
<path d="M66.2695 90.3657H72.2939V84.3413H66.2695V90.3657Z" fill="white"/>
<path d="M48.1953 90.3657H54.2197V84.3413H48.1953V90.3657Z" fill="white"/>
<path d="M42.1719 90.3657H48.1963V84.3413H42.1719V90.3657Z" fill="white"/>
<path d="M228.926 84.3413H234.95V78.3169H228.926V84.3413Z" fill="white"/>
<path d="M222.902 84.3413H228.927V78.3169H222.902V84.3413Z" fill="white"/>
<path d="M216.879 84.3413H222.903V78.3169H216.879V84.3413Z" fill="white"/>
<path d="M210.855 84.3413H216.88V78.3169H210.855V84.3413Z" fill="white"/>
<path d="M204.828 84.3413H210.853V78.3169H204.828V84.3413Z" fill="white"/>
<path d="M198.805 84.3413H204.829V78.3169H198.805V84.3413Z" fill="white"/>
<path d="M174.707 84.3413H180.731V78.3169H174.707V84.3413Z" fill="white"/>
<path d="M144.586 84.3413H150.61V78.3169H144.586V84.3413Z" fill="white"/>
<path d="M126.512 84.3413H132.536V78.3169H126.512V84.3413Z" fill="white"/>
<path d="M90.3672 84.3413H96.3916V78.3169H90.3672V84.3413Z" fill="white"/>
<path d="M78.3164 84.3413H84.3408V78.3169H78.3164V84.3413Z" fill="white"/>
<path d="M72.293 84.3413H78.3174V78.3169H72.293V84.3413Z" fill="white"/>
<path d="M66.2695 84.3413H72.2939V78.3169H66.2695V84.3413Z" fill="white"/>
<path d="M60.2422 84.3413H66.2666V78.3169H60.2422V84.3413Z" fill="white"/>
<path d="M36.1445 84.3413H42.1689V78.3169H36.1445V84.3413Z" fill="white"/>
<path d="M30.1211 84.3413H36.1455V78.3169H30.1211V84.3413Z" fill="white"/>
<path d="M228.926 78.3169H234.95V72.2925H228.926V78.3169Z" fill="white"/>
<path d="M222.902 78.3169H228.927V72.2925H222.902V78.3169Z" fill="white"/>
<path d="M210.855 78.3169H216.88V72.2925H210.855V78.3169Z" fill="white"/>
<path d="M198.805 78.3169H204.829V72.2925H198.805V78.3169Z" fill="white"/>
<path d="M192.781 78.3169H198.806V72.2925H192.781V78.3169Z" fill="white"/>
<path d="M180.73 78.3169H186.755V72.2925H180.73V78.3169Z" fill="white"/>
<path d="M168.684 78.3169H174.708V72.2925H168.684V78.3169Z" fill="white"/>
<path d="M162.66 78.3169H168.685V72.2925H162.66V78.3169Z" fill="white"/>
<path d="M150.609 78.3169H156.634V72.2925H150.609V78.3169Z" fill="white"/>
<path d="M138.562 78.3169H144.587V72.2925H138.562V78.3169Z" fill="white"/>
<path d="M114.465 78.3169H120.489V72.2925H114.465V78.3169Z" fill="white"/>
<path d="M108.438 78.3169H114.462V72.2925H108.438V78.3169Z" fill="white"/>
<path d="M102.414 78.3169H108.438V72.2925H102.414V78.3169Z" fill="white"/>
<path d="M84.3398 78.3169H90.3642V72.2925H84.3398V78.3169Z" fill="white"/>
<path d="M78.3164 78.3169H84.3408V72.2925H78.3164V78.3169Z" fill="white"/>
<path d="M72.293 78.3169H78.3174V72.2925H72.293V78.3169Z" fill="white"/>
<path d="M66.2695 78.3169H72.2939V72.2925H66.2695V78.3169Z" fill="white"/>
<path d="M54.2188 78.3169H60.2431V72.2925H54.2188V78.3169Z" fill="white"/>
<path d="M48.1953 78.3169H54.2197V72.2925H48.1953V78.3169Z" fill="white"/>
<path d="M42.1719 78.3169H48.1963V72.2925H42.1719V78.3169Z" fill="white"/>
<path d="M30.1211 78.3169H36.1455V72.2925H30.1211V78.3169Z" fill="white"/>
<path d="M18.0742 78.3169H24.0986V72.2925H18.0742V78.3169Z" fill="white"/>
<path d="M12.0469 78.3169H18.0713V72.2925H12.0469V78.3169Z" fill="white"/>
<path d="M228.926 72.2925H234.95V66.2681H228.926V72.2925Z" fill="white"/>
<path d="M216.879 72.2925H222.903V66.2681H216.879V72.2925Z" fill="white"/>
<path d="M210.855 72.2925H216.88V66.2681H210.855V72.2925Z" fill="white"/>
<path d="M204.828 72.2925H210.853V66.2681H204.828V72.2925Z" fill="white"/>
<path d="M198.805 72.2925H204.829V66.2681H198.805V72.2925Z" fill="white"/>
<path d="M186.758 72.2925H192.782V66.2681H186.758V72.2925Z" fill="white"/>
<path d="M174.707 72.2925H180.731V66.2681H174.707V72.2925Z" fill="white"/>
<path d="M168.684 72.2925H174.708V66.2681H168.684V72.2925Z" fill="white"/>
<path d="M156.633 72.2925H162.657V66.2681H156.633V72.2925Z" fill="white"/>
<path d="M132.535 72.2925H138.56V66.2681H132.535V72.2925Z" fill="white"/>
<path d="M114.465 72.2925H120.489V66.2681H114.465V72.2925Z" fill="white"/>
<path d="M60.2422 72.2925H66.2666V66.2681H60.2422V72.2925Z" fill="white"/>
<path d="M54.2188 72.2925H60.2431V66.2681H54.2188V72.2925Z" fill="white"/>
<path d="M48.1953 72.2925H54.2197V66.2681H48.1953V72.2925Z" fill="white"/>
<path d="M42.1719 72.2925H48.1963V66.2681H42.1719V72.2925Z" fill="white"/>
<path d="M36.1445 72.2925H42.1689V66.2681H36.1445V72.2925Z" fill="white"/>
<path d="M30.1211 72.2925H36.1455V66.2681H30.1211V72.2925Z" fill="white"/>
<path d="M24.0977 72.2925H30.122V66.2681H24.0977V72.2925Z" fill="white"/>
<path d="M12.0469 72.2925H18.0713V66.2681H12.0469V72.2925Z" fill="white"/>
<path d="M228.926 66.2685H234.95V60.2441H228.926V66.2685Z" fill="white"/>
<path d="M210.855 66.2685H216.88V60.2441H210.855V66.2685Z" fill="white"/>
<path d="M192.781 66.2685H198.806V60.2441H192.781V66.2685Z" fill="white"/>
<path d="M186.758 66.2685H192.782V60.2441H186.758V66.2685Z" fill="white"/>
<path d="M162.66 66.2685H168.685V60.2441H162.66V66.2685Z" fill="white"/>
<path d="M144.586 66.2685H150.61V60.2441H144.586V66.2685Z" fill="white"/>
<path d="M138.562 66.2685H144.587V60.2441H138.562V66.2685Z" fill="white"/>
<path d="M126.512 66.2685H132.536V60.2441H126.512V66.2685Z" fill="white"/>
<path d="M108.438 66.2685H114.462V60.2441H108.438V66.2685Z" fill="white"/>
<path d="M96.3906 66.2685H102.415V60.2441H96.3906V66.2685Z" fill="white"/>
<path d="M90.3672 66.2685H96.3916V60.2441H90.3672V66.2685Z" fill="white"/>
<path d="M78.3164 66.2685H84.3408V60.2441H78.3164V66.2685Z" fill="white"/>
<path d="M72.293 66.2685H78.3174V60.2441H72.293V66.2685Z" fill="white"/>
<path d="M60.2422 66.2685H66.2666V60.2441H60.2422V66.2685Z" fill="white"/>
<path d="M54.2188 66.2685H60.2431V60.2441H54.2188V66.2685Z" fill="white"/>
<path d="M48.1953 66.2685H54.2197V60.2441H48.1953V66.2685Z" fill="white"/>
<path d="M42.1719 66.2685H48.1963V60.2441H42.1719V66.2685Z" fill="white"/>
<path d="M36.1445 66.2685H42.1689V60.2441H36.1445V66.2685Z" fill="white"/>
<path d="M24.0977 66.2685H30.122V60.2441H24.0977V66.2685Z" fill="white"/>
<path d="M18.0742 66.2685H24.0986V60.2441H18.0742V66.2685Z" fill="white"/>
<path d="M12.0469 66.2685H18.0713V60.2441H12.0469V66.2685Z" fill="white"/>
<path d="M180.73 60.2441H186.755V54.2197H180.73V60.2441Z" fill="white"/>
<path d="M156.633 60.2441H162.657V54.2197H156.633V60.2441Z" fill="white"/>
<path d="M150.609 60.2441H156.634V54.2197H150.609V60.2441Z" fill="white"/>
<path d="M138.562 60.2441H144.587V54.2197H138.562V60.2441Z" fill="white"/>
<path d="M126.512 60.2441H132.536V54.2197H126.512V60.2441Z" fill="white"/>
<path d="M114.465 60.2441H120.489V54.2197H114.465V60.2441Z" fill="white"/>
<path d="M108.438 60.2441H114.462V54.2197H108.438V60.2441Z" fill="white"/>
<path d="M60.2422 60.2441H66.2666V54.2197H60.2422V60.2441Z" fill="white"/>
<path d="M36.1445 60.2441H42.1689V54.2197H36.1445V60.2441Z" fill="white"/>
<path d="M24.0977 60.2441H30.122V54.2197H24.0977V60.2441Z" fill="white"/>
<path d="M18.0742 60.2441H24.0986V54.2197H18.0742V60.2441Z" fill="white"/>
<path d="M180.73 54.2197H186.755V48.1953H180.73V54.2197Z" fill="white"/>
<path d="M162.66 54.2197H168.685V48.1953H162.66V54.2197Z" fill="white"/>
<path d="M138.562 54.2197H144.587V48.1953H138.562V54.2197Z" fill="white"/>
<path d="M132.535 54.2197H138.56V48.1953H132.535V54.2197Z" fill="white"/>
<path d="M126.512 54.2197H132.536V48.1953H126.512V54.2197Z" fill="white"/>
<path d="M114.465 54.2197H120.489V48.1953H114.465V54.2197Z" fill="white"/>
<path d="M102.414 54.2197H108.438V48.1953H102.414V54.2197Z" fill="white"/>
<path d="M96.3906 54.2197H102.415V48.1953H96.3906V54.2197Z" fill="white"/>
<path d="M90.3672 54.2197H96.3916V48.1953H90.3672V54.2197Z" fill="white"/>
<path d="M60.2422 54.2197H66.2666V48.1953H60.2422V54.2197Z" fill="white"/>
<path d="M48.1953 54.2197H54.2197V48.1953H48.1953V54.2197Z" fill="white"/>
<path d="M36.1445 54.2197H42.1689V48.1953H36.1445V54.2197Z" fill="white"/>
<path d="M12.0469 54.2197H18.0713V48.1953H12.0469V54.2197Z" fill="white"/>
<path d="M180.73 48.1953H186.755V42.1709H180.73V48.1953Z" fill="white"/>
<path d="M156.633 48.1953H162.657V42.1709H156.633V48.1953Z" fill="white"/>
<path d="M132.535 48.1953H138.56V42.1709H132.535V48.1953Z" fill="white"/>
<path d="M120.488 48.1953H126.513V42.1709H120.488V48.1953Z" fill="white"/>
<path d="M108.438 48.1953H114.462V42.1709H108.438V48.1953Z" fill="white"/>
<path d="M96.3906 48.1953H102.415V42.1709H96.3906V48.1953Z" fill="white"/>
<path d="M90.3672 48.1953H96.3916V42.1709H90.3672V48.1953Z" fill="white"/>
<path d="M78.3164 48.1953H84.3408V42.1709H78.3164V48.1953Z" fill="white"/>
<path d="M72.293 48.1953H78.3174V42.1709H72.293V48.1953Z" fill="white"/>
<path d="M66.2695 48.1953H72.2939V42.1709H66.2695V48.1953Z" fill="white"/>
<path d="M60.2422 48.1953H66.2666V42.1709H60.2422V48.1953Z" fill="white"/>
<path d="M36.1445 48.1953H42.1689V42.1709H36.1445V48.1953Z" fill="white"/>
<path d="M18.0742 48.1953H24.0986V42.1709H18.0742V48.1953Z" fill="white"/>
<path d="M180.73 42.1709H186.755V36.1465H180.73V42.1709Z" fill="white"/>
<path d="M168.684 42.1709H174.708V36.1465H168.684V42.1709Z" fill="white"/>
<path d="M162.66 42.1709H168.685V36.1465H162.66V42.1709Z" fill="white"/>
<path d="M138.562 42.1709H144.587V36.1465H138.562V42.1709Z" fill="white"/>
<path d="M132.535 42.1709H138.56V36.1465H132.535V42.1709Z" fill="white"/>
<path d="M120.488 42.1709H126.513V36.1465H120.488V42.1709Z" fill="white"/>
<path d="M114.465 42.1709H120.489V36.1465H114.465V42.1709Z" fill="white"/>
<path d="M90.3672 42.1709H96.3916V36.1465H90.3672V42.1709Z" fill="white"/>
<path d="M72.293 42.1709H78.3174V36.1465H72.293V42.1709Z" fill="white"/>
<path d="M66.2695 42.1709H72.2939V36.1465H66.2695V42.1709Z" fill="white"/>
<path d="M60.2422 42.1709H66.2666V36.1465H60.2422V42.1709Z" fill="white"/>
<path d="M54.2188 42.1709H60.2431V36.1465H54.2188V42.1709Z" fill="white"/>
<path d="M48.1953 42.1709H54.2197V36.1465H48.1953V42.1709Z" fill="white"/>
<path d="M42.1719 42.1709H48.1963V36.1465H42.1719V42.1709Z" fill="white"/>
<path d="M36.1445 42.1709H42.1689V36.1465H36.1445V42.1709Z" fill="white"/>
<path d="M12.0469 42.1709H18.0713V36.1465H12.0469V42.1709Z" fill="white"/>
<path d="M180.73 36.1465H186.755V30.1221H180.73V36.1465Z" fill="white"/>
<path d="M156.633 36.1465H162.657V30.1221H156.633V36.1465Z" fill="white"/>
<path d="M126.512 36.1465H132.536V30.1221H126.512V36.1465Z" fill="white"/>
<path d="M120.488 36.1465H126.513V30.1221H120.488V36.1465Z" fill="white"/>
<path d="M114.465 36.1465H120.489V30.1221H114.465V36.1465Z" fill="white"/>
<path d="M96.3906 36.1465H102.415V30.1221H96.3906V36.1465Z" fill="white"/>
<path d="M90.3672 36.1465H96.3916V30.1221H90.3672V36.1465Z" fill="white"/>
<path d="M78.3164 36.1465H84.3408V30.1221H78.3164V36.1465Z" fill="white"/>
<path d="M54.2188 36.1465H60.2431V30.1221H54.2188V36.1465Z" fill="white"/>
<path d="M48.1953 36.1465H54.2197V30.1221H48.1953V36.1465Z" fill="white"/>
<path d="M30.1211 36.1465H36.1455V30.1221H30.1211V36.1465Z" fill="white"/>
<path d="M24.0977 36.1465H30.122V30.1221H24.0977V36.1465Z" fill="white"/>
<path d="M18.0742 36.1465H24.0986V30.1221H18.0742V36.1465Z" fill="white"/>
<path d="M12.0469 36.1465H18.0713V30.1221H12.0469V36.1465Z" fill="white"/>
<path d="M174.707 30.122H180.731V24.0977H174.707V30.122Z" fill="white"/>
<path d="M168.684 30.122H174.708V24.0977H168.684V30.122Z" fill="white"/>
<path d="M150.609 30.122H156.634V24.0977H150.609V30.122Z" fill="white"/>
<path d="M90.3672 30.122H96.3916V24.0977H90.3672V30.122Z" fill="white"/>
<path d="M78.3164 30.122H84.3408V24.0977H78.3164V30.122Z" fill="white"/>
<path d="M66.2695 30.122H72.2939V24.0977H66.2695V30.122Z" fill="white"/>
<path d="M36.1445 30.122H42.1689V24.0977H36.1445V30.122Z" fill="white"/>
<path d="M12.0469 30.122H18.0713V24.0977H12.0469V30.122Z" fill="white"/>
<path d="M162.66 24.0976H168.685V18.0732H162.66V24.0976Z" fill="white"/>
<path d="M150.609 24.0976H156.634V18.0732H150.609V24.0976Z" fill="white"/>
<path d="M144.586 24.0976H150.61V18.0732H144.586V24.0976Z" fill="white"/>
<path d="M138.562 24.0976H144.587V18.0732H138.562V24.0976Z" fill="white"/>
<path d="M126.512 24.0976H132.536V18.0732H126.512V24.0976Z" fill="white"/>
<path d="M96.3906 24.0976H102.415V18.0732H96.3906V24.0976Z" fill="white"/>
<path d="M90.3672 24.0976H96.3916V18.0732H90.3672V24.0976Z" fill="white"/>
<path d="M72.293 24.0976H78.3174V18.0732H72.293V24.0976Z" fill="white"/>
<path d="M48.1953 24.0976H54.2197V18.0732H48.1953V24.0976Z" fill="white"/>
<path d="M36.1445 24.0976H42.1689V18.0732H36.1445V24.0976Z" fill="white"/>
<path d="M30.1211 24.0976H36.1455V18.0732H30.1211V24.0976Z" fill="white"/>
<path d="M24.0977 24.0976H30.122V18.0732H24.0977V24.0976Z" fill="white"/>
<path d="M18.0742 24.0976H24.0986V18.0732H18.0742V24.0976Z" fill="white"/>
<path d="M12.0469 24.0976H18.0713V18.0732H12.0469V24.0976Z" fill="white"/>
<path d="M180.73 18.0732H186.755V12.0488H180.73V18.0732Z" fill="white"/>
<path d="M174.707 18.0732H180.731V12.0488H174.707V18.0732Z" fill="white"/>
<path d="M168.684 18.0732H174.708V12.0488H168.684V18.0732Z" fill="white"/>
<path d="M162.66 18.0732H168.685V12.0488H162.66V18.0732Z" fill="white"/>
<path d="M156.633 18.0732H162.657V12.0488H156.633V18.0732Z" fill="white"/>
<path d="M150.609 18.0732H156.634V12.0488H150.609V18.0732Z" fill="white"/>
<path d="M144.586 18.0732H150.61V12.0488H144.586V18.0732Z" fill="white"/>
<path d="M132.535 18.0732H138.56V12.0488H132.535V18.0732Z" fill="white"/>
<path d="M108.438 18.0732H114.462V12.0488H108.438V18.0732Z" fill="white"/>
<path d="M90.3672 18.0732H96.3916V12.0488H90.3672V18.0732Z" fill="white"/>
<path d="M72.293 18.0732H78.3174V12.0488H72.293V18.0732Z" fill="white"/>
<path d="M60.2422 18.0732H66.2666V12.0488H60.2422V18.0732Z" fill="white"/>
<path d="M54.2188 18.0732H60.2431V12.0488H54.2188V18.0732Z" fill="white"/>
<path d="M48.1953 18.0732H54.2197V12.0488H48.1953V18.0732Z" fill="white"/>
<path d="M42.1719 18.0732H48.1963V12.0488H42.1719V18.0732Z" fill="white"/>
<path d="M12.0469 18.0732H18.0713V12.0488H12.0469V18.0732Z" fill="white"/>
<path d="M192.781 234.951V192.78H234.952V220.557C234.952 228.496 228.562 234.951 220.709 234.951H192.781ZM199.107 228.625H220.709C225.076 228.625 228.626 225.011 228.626 220.557V199.106H199.107V228.625Z" fill="white"/>
<path d="M54.2176 234.951V192.78H12.0469V220.557C12.0469 228.496 18.437 234.951 26.2903 234.951H54.2176ZM47.892 228.625H26.2903C21.9226 228.625 18.3725 225.011 18.3725 220.557V199.106H47.892V228.625Z" fill="white"/>
<path d="M192.781 12.0488V54.2196H234.952V26.4428C234.952 18.5035 228.562 12.0488 220.709 12.0488H192.781ZM199.107 18.3744H220.709C225.076 18.3744 228.626 21.9891 228.626 26.4428V47.894H199.107V18.3744Z" fill="white"/>
<path d="M204.809 222.902V204.829H222.882V217.911C222.882 220.665 220.666 222.902 217.976 222.902H209.757C208.918 222.902 207.67 222.902 206.659 222.902H204.83H204.809Z" fill="white"/>
<path d="M42.1904 222.902V204.829H24.1172V217.911C24.1172 220.665 26.3333 222.902 29.0228 222.902H37.2418C38.0809 222.902 39.3288 222.902 40.34 222.902H42.1688H42.1904Z" fill="white"/>
<path d="M204.809 24.0977V42.1708H222.882V29.0893C222.882 26.3353 220.666 24.0977 217.976 24.0977H209.757C208.918 24.0977 207.67 24.0977 206.659 24.0977H204.83H204.809Z" fill="white"/>
</svg>
